<svg id="Слой_1" xmlns="http://www.w3.org/2000/svg" viewBox="0 0 185.6 22.3"><style>.st0{fill:#111}</style><path class="st0" d="M13 15.5c0 2.2-.6 3.9-1.7 5.1-1.1 1.2-2.7 1.7-4.7 1.7-2.1 0-3.7-.7-4.8-2.1-1.2-1.4-1.7-3.4-1.7-6v-6c0-2.6.6-4.6 1.7-6C2.9.7 4.5 0 6.6 0c2.1 0 3.7.6 4.7 1.7C12.4 2.8 13 4.6 13 6.9h-3c0-1.6-.3-2.7-.8-3.5S7.8 2.3 6.6 2.3c-1.2 0-2.1.5-2.7 1.5-.6.9-.9 2.4-.9 4.3v6.1c0 1.9.3 3.4.9 4.4.6 1 1.5 1.5 2.7 1.5 1.2 0 2.1-.3 2.6-1s.8-1.8.9-3.5H13zM26.7 22.3h-3V.6h3v21.7zM50.9 2.9h-5.3v19.3h-3V2.9h-5.3V.6h13.5v2.3zM67.3 11l4-10.3h3.3l-5.8 13.8v7.8h-2.9v-8L60 .6h3.3l4 10.4zM88.2 22.3h-3V.6h3v21.7zM114.2 22.3h-3l-7.7-16v16h-3V.6h3l7.7 15.9V.6h3v21.7zM124.9 22.3V.6h5.2c2.6 0 4.5.7 5.9 2.2 1.3 1.5 2 3.7 2 6.7v3.9c0 3-.7 5.3-2 6.7-1.3 1.4-3.3 2.2-6 2.2h-5.1zm2.9-19.4v17h1.9c1.9 0 3.2-.5 4-1.6.8-1 1.2-2.7 1.2-5V9.5c0-2.3-.4-4-1.1-5-.8-1-2-1.5-3.9-1.5h-2.1zM159.1 12.2h-7.6V20h8.8v2.3h-11.8V.6h11.7v2.3h-8.7v7h7.6v2.3zM178.3 9.2l3.6-8.6h3.5l-5.3 10.7 5.6 10.9h-3.6l-3.7-8.7-3.7 8.7h-3.5l5.5-10.9L171.4.6h3.5l3.4 8.6z"/></svg>